{
    "asset" : {
        "generator" : "Khronos glTF Blender I/O v3.4.50",
        "version" : "2.0"
    },
    "scene" : 0,
    "scenes" : [
        {
            "name" : "Scene",
            "nodes" : [
                0,
                1
            ]
        }
    ],
    "nodes" : [
        {
            "mesh" : 0,
            "name" : "Cube",
            "rotation" : [
                -0.5274479389190674,
                0.03911468759179115,
                0.015572825446724892,
                0.8485435843467712
            ],
            "translation" : [
                5.280816555023193,
                4.641021728515625,
                1.9768049716949463
            ]
        },
        {
            "mesh" : 1,
            "name" : "Icosphere",
            "rotation" : [
                0,
                -0.16199253499507904,
                0,
                0.9867920279502869
            ],
            "scale" : [
                6.59378719329834,
                6.593787670135498,
                6.59378719329834
            ],
            "translation" : [
                5.280816555023193,
                0.45192310214042664,
                0.1063348576426506
            ]
        }
    ],
    "materials" : [
        {
            "doubleSided" : true,
            "name" : "Material",
            "pbrMetallicRoughness" : {}
        },
        {
            "doubleSided" : true,
            "name" : "Material.001",
            "pbrMetallicRoughness" : {
                "baseColorFactor" : [
                    0,
                    0,
                    0,
                    1
                ],
                "metallicFactor" : 0.6136363744735718,
                "roughnessFactor" : 0.5
            }
        }
    ],
    "meshes" : [
        {
            "name" : "Cube",
            "primitives" : [
                {
                    "attributes" : {
                        "POSITION" : 0,
                        "TEXCOORD_0" : 1,
                        "NORMAL" : 2
                    },
                    "indices" : 3,
                    "material" : 0
                }
            ]
        },
        {
            "name" : "Mesh",
            "primitives" : [
                {
                    "attributes" : {
                        "POSITION" : 4,
                        "TEXCOORD_0" : 5,
                        "NORMAL" : 6
                    },
                    "indices" : 7,
                    "material" : 1
                }
            ]
        }
    ],
    "accessors" : [
        {
            "bufferView" : 0,
            "componentType" : 5126,
            "count" : 4800,
            "max" : [
                1.414020299911499,
                5.686975002288818,
                1.1953620910644531
            ],
            "min" : [
                -1.414020299911499,
                -5.686975479125977,
                -10.178571701049805
            ],
            "type" : "VEC3"
        },
        {
            "bufferView" : 1,
            "componentType" : 5126,
            "count" : 4800,
            "type" : "VEC2"
        },
        {
            "bufferView" : 2,
            "componentType" : 5126,
            "count" : 4800,
            "type" : "VEC3"
        },
        {
            "bufferView" : 3,
            "componentType" : 5123,
            "count" : 7200,
            "type" : "SCALAR"
        },
        {
            "bufferView" : 4,
            "componentType" : 5126,
            "count" : 876715,
            "max" : [
                0.999363899230957,
                0.9994091987609863,
                0.7988410592079163
            ],
            "min" : [
                -0.9999161958694458,
                -0.9994091987609863,
                -0.9993598461151123
            ],
            "type" : "VEC3"
        },
        {
            "bufferView" : 5,
            "componentType" : 5126,
            "count" : 876715,
            "type" : "VEC2"
        },
        {
            "bufferView" : 6,
            "componentType" : 5126,
            "count" : 876715,
            "type" : "VEC3"
        },
        {
            "bufferView" : 7,
            "componentType" : 5125,
            "count" : 4312512,
            "type" : "SCALAR"
        }
    ],
    "bufferViews" : [
        {
            "buffer" : 0,
            "byteLength" : 57600,
            "byteOffset" : 0,
            "target" : 34962
        },
        {
            "buffer" : 0,
            "byteLength" : 38400,
            "byteOffset" : 57600,
            "target" : 34962
        },
        {
            "buffer" : 0,
            "byteLength" : 57600,
            "byteOffset" : 96000,
            "target" : 34962
        },
        {
            "buffer" : 0,
            "byteLength" : 14400,
            "byteOffset" : 153600,
            "target" : 34963
        },
        {
            "buffer" : 0,
            "byteLength" : 10520580,
            "byteOffset" : 168000,
            "target" : 34962
        },
        {
            "buffer" : 0,
            "byteLength" : 7013720,
            "byteOffset" : 10688580,
            "target" : 34962
        },
        {
            "buffer" : 0,
            "byteLength" : 10520580,
            "byteOffset" : 17702300,
            "target" : 34962
        },
        {
            "buffer" : 0,
            "byteLength" : 17250048,
            "byteOffset" : 28222880,
            "target" : 34963
        }
    ],
    "buffers" : [
        {
            "byteLength" : 45472928,
            "uri" : "uploads_files_2667685_fondo+de+pantalla+2.bin"
        }
    ]
}
